<?xml version="1.0" standalone="no"?>
<!DOCTYPE svg PUBLIC "-//W3C//DTD SVG 20010904//EN"
 "http://www.w3.org/TR/2001/REC-SVG-20010904/DTD/svg10.dtd">
<svg version="1.0" xmlns="http://www.w3.org/2000/svg"
 width="960.000000pt" height="961.000000pt" viewBox="0 0 960.000000 961.000000"
 preserveAspectRatio="xMidYMid meet">

<g transform="translate(0.000000,961.000000) scale(0.100000,-0.100000)"
fill="#000000" stroke="none">
<path d="M4565 8994 c-22 -2 -96 -9 -165 -15 -1397 -124 -2660 -976 -3324
-2240 -240 -457 -388 -947 -453 -1497 -24 -206 -24 -688 0 -894 93 -782 362
-1467 817 -2073 640 -854 1586 -1437 2630 -1620 275 -48 414 -59 735 -59 321
0 460 11 735 59 1729 304 3102 1676 3404 3403 49 277 60 416 60 737 0 321 -11
460 -59 734 -290 1651 -1553 2984 -3185 3361 -308 71 -555 100 -895 105 -143
1 -278 1 -300 -1z m-763 -2466 c7 -310 8 -1350 2 -1560 l-7 -218 -789 0 -788
0 0 965 0 965 789 0 790 0 3 -152z m3562 -200 c4 -194 6 -627 4 -963 l-3 -610
-792 -3 -793 -2 0 965 0 965 789 0 789 0 6 -352z m-5094 -2043 l0 -425 256 0
256 0 -3 -155 -4 -155 511 0 511 0 7 -46 c3 -26 7 -70 7 -98 1 -28 4 -41 6
-28 4 19 11 22 54 22 46 0 49 -1 51 -27 1 -16 4 15 7 67 l6 95 858 3 857 2 0
-59 c0 -89 2 -91 76 -91 54 0 64 -3 66 -17 1 -10 4 23 7 72 l6 90 500 5 500 5
3 158 3 157 259 0 260 0 0 420 0 420 265 0 265 0 0 -435 0 -435 -225 0 -225 0
0 -420 0 -420 -275 0 -275 0 -2 -252 -3 -253 -2047 0 c-1125 0 -2050 4 -2055
8 -4 5 -9 119 -11 253 l-4 244 -274 0 -274 0 0 430 0 430 -230 0 -230 0 0 430
0 430 270 0 270 0 0 -425z"/>
</g>
</svg>
